<svg xmlns="http://www.w3.org/2000/svg" viewBox="0 0 48 48" width="48" height="48">
  <circle cx="24" cy="24" r="6" fill="#8B5CF6"/>
  <circle cx="10" cy="10" r="4" fill="#A78BFA"/>
  <circle cx="38" cy="10" r="4" fill="#A78BFA"/>
  <circle cx="10" cy="38" r="4" fill="#A78BFA"/>
  <circle cx="38" cy="38" r="4" fill="#A78BFA"/>
  <line x1="14" y1="14" x2="20" y2="20" stroke="#C4B5FD" stroke-width="2"/>
  <line x1="34" y1="14" x2="28" y2="20" stroke="#C4B5FD" stroke-width="2"/>
  <line x1="14" y1="34" x2="20" y2="28" stroke="#C4B5FD" stroke-width="2"/>
  <line x1="34" y1="34" x2="28" y2="28" stroke="#C4B5FD" stroke-width="2"/>
  <circle cx="24" cy="6" r="3" fill="#DDD6FE"/>
  <circle cx="24" cy="42" r="3" fill="#DDD6FE"/>
  <circle cx="6" cy="24" r="3" fill="#DDD6FE"/>
  <circle cx="42" cy="24" r="3" fill="#DDD6FE"/>
  <line x1="24" y1="9" x2="24" y2="18" stroke="#C4B5FD" stroke-width="2"/>
  <line x1="24" y1="30" x2="24" y2="39" stroke="#C4B5FD" stroke-width="2"/>
  <line x1="9" y1="24" x2="18" y2="24" stroke="#C4B5FD" stroke-width="2"/>
  <line x1="30" y1="24" x2="39" y2="24" stroke="#C4B5FD" stroke-width="2"/>
</svg>