<svg xmlns="http://www.w3.org/2000/svg" viewBox="0 0 128 128">
  <path fill="#326CE5" d="M64 4.2c-2.4 0-4.7.4-6.8 1.2L22.7 20.3c-4.3 1.6-7.8 5.2-9.3 9.5L.4 64.2c-1.6 4.6-1 9.8 1.8 13.9l20.3 34.5c2.6 4.4 7.1 7.3 12.2 7.9l39.3 4.5c5.1.6 10.2-1.2 13.8-4.8l28.8-28.8c3.6-3.6 5.4-8.7 4.8-13.8l-4.5-39.3c-.6-5.1-3.5-9.6-7.9-12.2L74.5 6c-3.2-1.2-6.8-1.8-10.5-1.8zm0 12.8c.9 0 1.7.3 2.4.9l39.3 32.8c1.5 1.3 1.7 3.6.4 5.1l-32.8 39.3c-1.3 1.5-3.6 1.7-5.1.4L28.9 62.7c-1.5-1.3-1.7-3.6-.4-5.1L61.3 18.3c.7-.8 1.7-1.3 2.7-1.3z"/>
  <path fill="#FFF" d="M64 27.7L36.3 60.4l27.7 23.2 27.7-23.2L64 27.7zm0 8.8l18.3 21.9L64 76.7l-18.3-18.3L64 36.5z"/>
</svg>
