<svg version="1.1" id="Layer_1" xmlns="http://www.w3.org/2000/svg" xmlns:xlink="http://www.w3.org/1999/xlink" x="0px" y="0px"
	 width="100%" viewBox="0 0 562 214" enable-background="new 0 0 562 214" xml:space="preserve">
<path fill="#15161B" opacity="1.000000" stroke="none" 
	d="
M397.000000,215.000000 
	C264.666656,215.000000 132.833328,215.000000 1.000000,215.000000 
	C1.000000,143.666672 1.000000,72.333336 1.000000,1.000000 
	C188.333328,1.000000 375.666656,1.000000 563.000000,1.000000 
	C563.000000,72.333336 563.000000,143.666672 563.000000,215.000000 
	C507.833344,215.000000 452.666656,215.000000 397.000000,215.000000 
M134.142670,94.730675 
	C137.039871,88.375565 139.937057,82.020454 143.127594,75.021889 
	C137.556717,75.021889 133.225876,75.248390 128.931732,74.948845 
	C125.610580,74.717194 123.956810,75.833305 122.602661,78.942596 
	C117.368980,90.959702 111.726120,102.798027 106.415489,114.782631 
	C105.240555,117.434135 103.803093,118.478317 100.836388,118.428078 
	C90.180061,118.247589 79.517036,118.260986 68.861259,118.456993 
	C67.177422,118.487968 64.716110,119.386505 63.994907,120.663589 
	C61.675129,124.771400 60.001682,129.244202 57.689098,134.454666 
	C71.225235,134.454666 83.919716,134.454666 97.319000,134.454666 
	C89.237206,152.268463 81.531548,169.253220 73.510048,186.934128 
	C78.708244,186.934128 83.022202,186.660202 87.283546,187.016129 
	C91.057655,187.331375 92.777328,185.839157 94.295021,182.471771 
	C107.390961,153.415207 120.688164,124.449348 134.142670,94.730675 
M330.953857,141.426666 
	C330.121979,143.240936 329.210724,145.023499 328.470978,146.874588 
	C323.122314,160.258163 328.349426,168.012711 342.721558,168.020737 
	C364.880035,168.033127 387.038544,168.024246 409.197021,168.024384 
	C410.789886,168.024399 412.382782,168.024384 413.779663,168.024384 
	C413.779663,163.583420 413.779663,159.852676 413.779663,155.930634 
	C411.571655,155.930634 409.751343,155.930725 407.931030,155.930618 
	C388.271637,155.929581 368.612061,155.971466 348.952881,155.905075 
	C341.686157,155.880539 340.091339,153.301758 342.858276,146.491577 
	C343.358643,145.260056 343.896576,144.042450 344.456329,142.836609 
	C354.450928,121.305191 364.465698,99.783096 374.425629,78.235664 
	C375.264618,76.420647 375.744507,74.439667 376.504486,72.202316 
	C358.743103,72.202316 341.825623,72.202316 325.090210,72.202316 
	C325.090210,76.205032 325.090210,79.915176 325.090210,84.233704 
	C335.705078,84.233704 345.886078,84.233704 356.951355,84.233704 
	C348.121735,103.638252 339.683899,122.181786 330.953857,141.426666 
M190.215378,149.678864 
	C184.707611,161.865646 179.199844,174.052429 173.380295,186.929047 
	C178.747635,186.929047 183.222305,186.658005 187.646072,187.016037 
	C191.095703,187.295227 192.577103,185.887711 193.924194,182.910049 
	C209.451981,148.586716 225.120514,114.327057 240.729507,80.040390 
	C241.387360,78.595360 241.829163,77.051987 242.562729,75.026833 
	C237.200043,75.026833 232.547760,75.196098 227.915649,74.963371 
	C225.135666,74.823700 223.883713,75.868294 222.757935,78.369392 
	C212.136093,101.967743 201.359238,125.496346 190.215378,149.678864 
M137.788345,118.541824 
	C135.462677,118.982231 131.924179,118.638519 131.037811,120.009483 
	C128.335159,124.189697 126.654533,129.030670 124.522842,133.732010 
	C125.702667,134.170059 126.151596,134.481949 126.600906,134.482498 
	C141.074951,134.500336 155.577881,135.058472 170.015350,134.327606 
	C185.966812,133.520111 197.921997,121.715515 198.958191,107.218758 
	C200.443741,86.435631 181.057938,70.091721 160.802963,75.089684 
	C160.112549,75.260056 159.254883,75.788437 158.966980,76.386627 
	C157.054230,80.360962 155.275726,84.399910 153.223343,88.925499 
	C159.274475,89.231583 164.590775,89.093613 169.775681,89.852921 
	C178.787186,91.172615 183.869202,97.696770 183.077820,106.106445 
	C182.378387,113.539055 176.405304,118.438255 167.673309,118.520325 
	C158.023285,118.611031 148.371765,118.541573 137.788345,118.541824 
M282.898651,106.147705 
	C281.195801,114.398392 276.480957,118.424339 267.969940,118.514862 
	C257.153809,118.629906 246.335190,118.502724 235.518539,118.590164 
	C233.970093,118.602676 231.540878,118.741592 231.030807,119.660759 
	C228.525589,124.175407 226.530991,128.973389 224.160110,134.094498 
	C241.005768,134.094498 256.787903,134.621246 272.514526,133.914154 
	C283.477844,133.421234 291.429840,126.933784 296.064392,117.062660 
	C301.269043,105.977287 299.687531,95.328392 292.191345,85.787453 
	C284.065979,75.445732 272.603058,74.224701 260.573853,75.117714 
	C259.930817,75.165443 259.068237,75.860344 258.778381,76.475639 
	C256.899414,80.464149 255.151016,84.514168 253.174637,88.960754 
	C259.111145,89.230049 264.285492,89.069695 269.337280,89.780624 
	C278.351227,91.049133 282.622498,96.220535 282.898651,106.147705 
M506.701904,110.223305 
	C516.943665,102.822105 522.214966,92.769936 522.973145,80.189743 
	C523.201172,76.405640 522.187561,74.767174 518.009460,74.932861 
	C510.193817,75.242813 502.356750,75.016945 494.528625,74.993210 
	C494.075378,74.991837 493.622711,74.804863 493.171265,74.704590 
	C493.390717,73.284859 493.596191,71.955719 493.805328,70.602760 
	C484.555603,69.749199 484.625580,69.819969 478.585541,75.791832 
	C476.845154,77.512596 474.391602,78.504288 472.610718,80.194481 
	C471.383667,81.359070 470.275543,83.060364 469.967255,84.683762 
	C469.523224,87.022339 469.853821,89.507996 469.853821,93.813538 
	C482.747955,83.350685 496.343170,85.829689 510.200348,87.167068 
	C507.877533,91.471550 505.156464,95.140472 502.375122,98.763100 
	C500.691254,100.956276 498.798279,100.765854 496.879944,99.035667 
	C493.700867,96.168404 490.527100,93.295212 487.263184,90.345055 
	C484.318054,92.043793 481.461975,93.691177 477.848145,95.775620 
	C481.242767,99.638268 484.355865,103.180565 487.849243,107.155563 
	C481.692535,108.182022 475.866913,109.153282 470.230713,110.092972 
	C470.230713,113.670830 470.230713,116.890244 470.230713,120.297913 
	C483.288940,120.112137 495.352905,117.812500 506.701904,110.223305 
M437.542358,137.077087 
	C447.979950,137.077087 458.417572,137.077087 469.244873,137.077087 
	C469.244873,146.963669 469.151123,156.264099 469.347137,165.558411 
	C469.376160,166.934753 470.624512,169.320343 471.565613,169.455902 
	C474.899506,169.936111 478.344788,169.643097 482.211121,169.643097 
	C482.211121,158.182404 482.211121,147.606842 482.211121,136.637100 
	C495.770782,136.637100 508.852386,136.637100 522.130920,136.637100 
	C522.130920,132.959335 522.130920,129.698563 522.130920,126.050888 
	C509.896149,126.050888 497.936462,126.066574 485.976959,126.028267 
	C484.684937,126.024124 482.637787,126.158417 482.222717,125.463203 
	C479.072784,120.187134 472.111481,122.112854 470.832184,123.472221 
	C466.872528,127.679817 462.628632,125.787636 458.641449,125.934196 
	C448.886902,126.292763 439.110291,126.051239 429.288147,126.051239 
	C429.288147,130.078278 429.288147,133.464264 429.288147,137.077087 
	C431.930939,137.077087 434.244629,137.077087 437.542358,137.077087 
M429.198334,114.555878 
	C429.292236,116.608185 429.386139,118.660484 429.541870,122.064575 
	C438.102875,118.009773 445.627716,114.445732 453.374115,110.776764 
	C453.530945,113.872589 453.707947,117.366974 453.878998,120.743347 
	C457.868469,120.743347 461.275970,120.743347 464.661713,120.743347 
	C464.661713,104.226456 464.661713,88.046127 464.661713,71.709801 
	C460.898773,71.709801 457.498779,71.709801 453.365967,71.709801 
	C453.365967,75.994942 453.365967,79.977577 453.365967,83.960220 
	C452.765961,84.287437 452.165985,84.614647 451.565979,84.941864 
	C448.176666,81.302979 444.811371,77.641243 441.383575,74.038986 
	C440.338867,72.941078 439.214661,71.299622 437.966003,71.136230 
	C434.785583,70.720047 431.514374,70.997734 427.494507,70.997734 
	C432.641876,83.343689 439.944214,92.159363 452.427795,96.376007 
	C446.767639,102.318550 440.301666,105.926041 433.063446,108.053360 
	C429.907776,108.980820 428.639374,110.533745 429.198334,114.555878 
M409.595093,70.988792 
	C405.644318,70.165642 403.543304,71.913651 402.257507,75.632286 
	C401.074493,79.053650 399.404358,82.331833 397.704590,85.543839 
	C394.521271,91.559280 389.559448,94.948074 382.618744,95.211441 
	C379.801910,95.318329 376.978149,95.448898 374.180939,95.771515 
	C372.979248,95.910118 371.240082,96.224533 370.772339,97.044823 
	C368.865814,100.388184 367.356812,103.958183 365.594147,107.670364 
	C395.845428,110.178619 413.097534,97.643745 416.440338,70.988808 
	C414.421570,70.988808 412.450958,70.988808 409.595093,70.988792 
M379.638977,135.903931 
	C389.863953,143.075226 401.130402,146.450058 413.745697,145.712753 
	C413.745697,141.502625 413.745697,137.773651 413.745697,133.929657 
	C398.279633,133.979950 386.044891,128.338760 377.542175,115.417252 
	C376.996124,114.587425 375.775818,113.763115 374.828156,113.713081 
	C371.115723,113.517075 367.386871,113.632957 363.237732,113.632957 
	C366.804932,122.923904 372.263855,129.686523 379.638977,135.903931 
M502.223755,147.156128 
	C498.757812,139.041443 491.853638,142.539215 485.924744,141.911179 
	C489.617279,156.782578 507.743530,169.713257 522.113159,168.018112 
	C522.113159,164.449722 522.113159,160.874786 522.113159,157.228455 
	C514.401917,156.192429 507.662781,153.732925 502.223755,147.156128 
M451.703033,143.698074 
	C446.569183,152.087326 438.838135,156.264786 429.268402,157.195450 
	C429.268402,161.090118 429.268402,164.660782 429.268402,168.211548 
	C445.091675,168.712067 461.736084,156.673096 465.728180,141.401810 
	C460.985016,141.946274 456.524323,142.458328 451.703033,143.698074 
M191.212006,51.537136 
	C188.737732,45.323017 183.846085,42.276775 178.175842,43.418957 
	C171.667603,44.729939 167.783951,50.443043 168.878769,57.095608 
	C169.873795,63.142017 175.718674,67.107826 182.196320,66.131729 
	C188.751862,65.143890 192.501709,59.592461 191.212006,51.537136 
M291.542297,51.394127 
	C288.850708,45.662189 284.827026,42.857258 279.785431,43.198349 
	C274.939880,43.526176 270.533569,47.068375 269.210968,51.699070 
	C267.933167,56.172859 269.637024,61.321793 273.487549,64.090271 
	C277.501160,66.976036 281.913971,67.232147 286.138763,64.867516 
	C291.028076,62.130951 292.704163,57.641743 291.542297,51.394127 
z"/>
<path fill="#F8F8F9" opacity="1.000000" stroke="none" 
	d="
M134.034012,95.093559 
	C120.688164,124.449348 107.390961,153.415207 94.295021,182.471771 
	C92.777328,185.839157 91.057655,187.331375 87.283546,187.016129 
	C83.022202,186.660202 78.708244,186.934128 73.510048,186.934128 
	C81.531548,169.253220 89.237206,152.268463 97.319000,134.454666 
	C83.919716,134.454666 71.225235,134.454666 57.689098,134.454666 
	C60.001682,129.244202 61.675129,124.771400 63.994907,120.663589 
	C64.716110,119.386505 67.177422,118.487968 68.861259,118.456993 
	C79.517036,118.260986 90.180061,118.247589 100.836388,118.428078 
	C103.803093,118.478317 105.240555,117.434135 106.415489,114.782631 
	C111.726120,102.798027 117.368980,90.959702 122.602661,78.942596 
	C123.956810,75.833305 125.610580,74.717194 128.931732,74.948845 
	C133.225876,75.248390 137.556717,75.021889 143.127594,75.021889 
	C139.937057,82.020454 137.039871,88.375565 134.034012,95.093559 
z"/>
<path fill="#FBFBFB" opacity="1.000000" stroke="none" 
	d="
M331.099976,141.075989 
	C339.683899,122.181786 348.121735,103.638252 356.951355,84.233704 
	C345.886078,84.233704 335.705078,84.233704 325.090210,84.233704 
	C325.090210,79.915176 325.090210,76.205032 325.090210,72.202316 
	C341.825623,72.202316 358.743103,72.202316 376.504486,72.202316 
	C375.744507,74.439667 375.264618,76.420647 374.425629,78.235664 
	C364.465698,99.783096 354.450928,121.305191 344.456329,142.836609 
	C343.896576,144.042450 343.358643,145.260056 342.858276,146.491577 
	C340.091339,153.301758 341.686157,155.880539 348.952881,155.905075 
	C368.612061,155.971466 388.271637,155.929581 407.931030,155.930618 
	C409.751343,155.930725 411.571655,155.930634 413.779663,155.930634 
	C413.779663,159.852676 413.779663,163.583420 413.779663,168.024384 
	C412.382782,168.024384 410.789886,168.024399 409.197021,168.024384 
	C387.038544,168.024246 364.880035,168.033127 342.721558,168.020737 
	C328.349426,168.012711 323.122314,160.258163 328.470978,146.874588 
	C329.210724,145.023499 330.121979,143.240936 331.099976,141.075989 
z"/>
<path fill="#FAFBFB" opacity="1.000000" stroke="none" 
	d="
M190.421234,149.361969 
	C201.359238,125.496346 212.136093,101.967743 222.757935,78.369392 
	C223.883713,75.868294 225.135666,74.823700 227.915649,74.963371 
	C232.547760,75.196098 237.200043,75.026833 242.562729,75.026833 
	C241.829163,77.051987 241.387360,78.595360 240.729507,80.040390 
	C225.120514,114.327057 209.451981,148.586716 193.924194,182.910049 
	C192.577103,185.887711 191.095703,187.295227 187.646072,187.016037 
	C183.222305,186.658005 178.747635,186.929047 173.380295,186.929047 
	C179.199844,174.052429 184.707611,161.865646 190.421234,149.361969 
z"/>
<path fill="#F9F9F9" opacity="1.000000" stroke="none" 
	d="
M138.254608,118.541840 
	C148.371765,118.541573 158.023285,118.611031 167.673309,118.520325 
	C176.405304,118.438255 182.378387,113.539055 183.077820,106.106445 
	C183.869202,97.696770 178.787186,91.172615 169.775681,89.852921 
	C164.590775,89.093613 159.274475,89.231583 153.223343,88.925499 
	C155.275726,84.399910 157.054230,80.360962 158.966980,76.386627 
	C159.254883,75.788437 160.112549,75.260056 160.802963,75.089684 
	C181.057938,70.091721 200.443741,86.435631 198.958191,107.218758 
	C197.921997,121.715515 185.966812,133.520111 170.015350,134.327606 
	C155.577881,135.058472 141.074951,134.500336 126.600906,134.482498 
	C126.151596,134.481949 125.702667,134.170059 124.522842,133.732010 
	C126.654533,129.030670 128.335159,124.189697 131.037811,120.009483 
	C131.924179,118.638519 135.462677,118.982231 138.254608,118.541840 
z"/>
<path fill="#F9F9FA" opacity="1.000000" stroke="none" 
	d="
M282.912170,105.733444 
	C282.622498,96.220535 278.351227,91.049133 269.337280,89.780624 
	C264.285492,89.069695 259.111145,89.230049 253.174637,88.960754 
	C255.151016,84.514168 256.899414,80.464149 258.778381,76.475639 
	C259.068237,75.860344 259.930817,75.165443 260.573853,75.117714 
	C272.603058,74.224701 284.065979,75.445732 292.191345,85.787453 
	C299.687531,95.328392 301.269043,105.977287 296.064392,117.062660 
	C291.429840,126.933784 283.477844,133.421234 272.514526,133.914154 
	C256.787903,134.621246 241.005768,134.094498 224.160110,134.094498 
	C226.530991,128.973389 228.525589,124.175407 231.030807,119.660759 
	C231.540878,118.741592 233.970093,118.602676 235.518539,118.590164 
	C246.335190,118.502724 257.153809,118.629906 267.969940,118.514862 
	C276.480957,118.424339 281.195801,114.398392 282.912170,105.733444 
z"/>
<path fill="#F9F9F9" opacity="1.000000" stroke="none" 
	d="
M506.414917,110.440353 
	C495.352905,117.812500 483.288940,120.112137 470.230713,120.297913 
	C470.230713,116.890244 470.230713,113.670830 470.230713,110.092972 
	C475.866913,109.153282 481.692535,108.182022 487.849243,107.155563 
	C484.355865,103.180565 481.242767,99.638268 477.848145,95.775620 
	C481.461975,93.691177 484.318054,92.043793 487.263184,90.345055 
	C490.527100,93.295212 493.700867,96.168404 496.879944,99.035667 
	C498.798279,100.765854 500.691254,100.956276 502.375122,98.763100 
	C505.156464,95.140472 507.877533,91.471550 510.200348,87.167068 
	C496.343170,85.829689 482.747955,83.350685 469.853821,93.813538 
	C469.853821,89.507996 469.523224,87.022339 469.967255,84.683762 
	C470.275543,83.060364 471.383667,81.359070 472.610718,80.194481 
	C474.391602,78.504288 476.845154,77.512596 478.585541,75.791832 
	C484.625580,69.819969 484.555603,69.749199 493.805328,70.602760 
	C493.596191,71.955719 493.390717,73.284859 493.171265,74.704590 
	C493.622711,74.804863 494.075378,74.991837 494.528625,74.993210 
	C502.356750,75.016945 510.193817,75.242813 518.009460,74.932861 
	C522.187561,74.767174 523.201172,76.405640 522.973145,80.189743 
	C522.214966,92.769936 516.943665,102.822105 506.414917,110.440353 
z"/>
<path fill="#F8F8F8" opacity="1.000000" stroke="none" 
	d="
M437.050354,137.077087 
	C434.244629,137.077087 431.930939,137.077087 429.288147,137.077087 
	C429.288147,133.464264 429.288147,130.078278 429.288147,126.051239 
	C439.110291,126.051239 448.886902,126.292763 458.641449,125.934196 
	C462.628632,125.787636 466.872528,127.679817 470.832184,123.472221 
	C472.111481,122.112854 479.072784,120.187134 482.222717,125.463203 
	C482.637787,126.158417 484.684937,126.024124 485.976959,126.028267 
	C497.936462,126.066574 509.896149,126.050888 522.130920,126.050888 
	C522.130920,129.698563 522.130920,132.959335 522.130920,136.637100 
	C508.852386,136.637100 495.770782,136.637100 482.211121,136.637100 
	C482.211121,147.606842 482.211121,158.182404 482.211121,169.643097 
	C478.344788,169.643097 474.899506,169.936111 471.565613,169.455902 
	C470.624512,169.320343 469.376160,166.934753 469.347137,165.558411 
	C469.151123,156.264099 469.244873,146.963669 469.244873,137.077087 
	C458.417572,137.077087 447.979950,137.077087 437.050354,137.077087 
z"/>
<path fill="#F9F9F9" opacity="1.000000" stroke="none" 
	d="
M429.198364,114.119766 
	C428.639374,110.533745 429.907776,108.980820 433.063446,108.053360 
	C440.301666,105.926041 446.767639,102.318550 452.427795,96.376007 
	C439.944214,92.159363 432.641876,83.343689 427.494507,70.997734 
	C431.514374,70.997734 434.785583,70.720047 437.966003,71.136230 
	C439.214661,71.299622 440.338867,72.941078 441.383575,74.038986 
	C444.811371,77.641243 448.176666,81.302979 451.565979,84.941864 
	C452.165985,84.614647 452.765961,84.287437 453.365967,83.960220 
	C453.365967,79.977577 453.365967,75.994942 453.365967,71.709801 
	C457.498779,71.709801 460.898773,71.709801 464.661713,71.709801 
	C464.661713,88.046127 464.661713,104.226456 464.661713,120.743347 
	C461.275970,120.743347 457.868469,120.743347 453.878998,120.743347 
	C453.707947,117.366974 453.530945,113.872589 453.374115,110.776764 
	C445.627716,114.445732 438.102875,118.009773 429.541870,122.064575 
	C429.386139,118.660484 429.292236,116.608185 429.198364,114.119766 
z"/>
<path fill="#F9F9F9" opacity="1.000000" stroke="none" 
	d="
M410.037720,70.988800 
	C412.450958,70.988808 414.421570,70.988808 416.440338,70.988808 
	C413.097534,97.643745 395.845428,110.178619 365.594147,107.670364 
	C367.356812,103.958183 368.865814,100.388184 370.772339,97.044823 
	C371.240082,96.224533 372.979248,95.910118 374.180939,95.771515 
	C376.978149,95.448898 379.801910,95.318329 382.618744,95.211441 
	C389.559448,94.948074 394.521271,91.559280 397.704590,85.543839 
	C399.404358,82.331833 401.074493,79.053650 402.257507,75.632286 
	C403.543304,71.913651 405.644318,70.165642 410.037720,70.988800 
z"/>
<path fill="#F9F9F9" opacity="1.000000" stroke="none" 
	d="
M379.366943,135.672958 
	C372.263855,129.686523 366.804932,122.923904 363.237732,113.632957 
	C367.386871,113.632957 371.115723,113.517075 374.828156,113.713081 
	C375.775818,113.763115 376.996124,114.587425 377.542175,115.417252 
	C386.044891,128.338760 398.279633,133.979950 413.745697,133.929657 
	C413.745697,137.773651 413.745697,141.502625 413.745697,145.712753 
	C401.130402,146.450058 389.863953,143.075226 379.366943,135.672958 
z"/>
<path fill="#F9F9F9" opacity="1.000000" stroke="none" 
	d="
M502.468628,147.432922 
	C507.662781,153.732925 514.401917,156.192429 522.113159,157.228455 
	C522.113159,160.874786 522.113159,164.449722 522.113159,168.018112 
	C507.743530,169.713257 489.617279,156.782578 485.924744,141.911179 
	C491.853638,142.539215 498.757812,139.041443 502.468628,147.432922 
z"/>
<path fill="#F9F9F9" opacity="1.000000" stroke="none" 
	d="
M451.883331,143.334229 
	C456.524323,142.458328 460.985016,141.946274 465.728180,141.401810 
	C461.736084,156.673096 445.091675,168.712067 429.268402,168.211548 
	C429.268402,164.660782 429.268402,161.090118 429.268402,157.195450 
	C438.838135,156.264786 446.569183,152.087326 451.883331,143.334229 
z"/>
<path fill="#F9FAFA" opacity="1.000000" stroke="none" 
	d="
M191.397202,51.886658 
	C192.501709,59.592461 188.751862,65.143890 182.196320,66.131729 
	C175.718674,67.107826 169.873795,63.142017 168.878769,57.095608 
	C167.783951,50.443043 171.667603,44.729939 178.175842,43.418957 
	C183.846085,42.276775 188.737732,45.323017 191.397202,51.886658 
z"/>
<path fill="#F9F9F9" opacity="1.000000" stroke="none" 
	d="
M291.667175,51.777031 
	C292.704163,57.641743 291.028076,62.130951 286.138763,64.867516 
	C281.913971,67.232147 277.501160,66.976036 273.487549,64.090271 
	C269.637024,61.321793 267.933167,56.172859 269.210968,51.699070 
	C270.533569,47.068375 274.939880,43.526176 279.785431,43.198349 
	C284.827026,42.857258 288.850708,45.662189 291.667175,51.777031 
z"/>
</svg>