<svg xmlns="http://www.w3.org/2000/svg" viewBox="0 0 48 48" width="48" height="48">
  <rect x="20" y="8" width="8" height="20" rx="4" fill="#8B5CF6"/>
  <path d="M14 20v4c0 5.523 4.477 10 10 10s10-4.477 10-10v-4" stroke="#8B5CF6" stroke-width="3" fill="none" stroke-linecap="round"/>
  <line x1="24" y1="34" x2="24" y2="40" stroke="#8B5CF6" stroke-width="3" stroke-linecap="round"/>
  <line x1="18" y1="40" x2="30" y2="40" stroke="#8B5CF6" stroke-width="3" stroke-linecap="round"/>
  <path d="M6 24c0-1 0.5-2 1.5-2s1.5 1 1.5 2v1c0 1-0.5 2-1.5 2s-1.5-1-1.5-2v-1" fill="#A78BFA"/>
  <path d="M39 24c0-1 0.5-2 1.5-2s1.5 1 1.5 2v1c0 1-0.5 2-1.5 2s-1.5-1-1.5-2v-1" fill="#A78BFA"/>
  <path d="M10 22c0-1.5 0.75-3 2.25-3s2.25 1.5 2.25 3v2c0 1.5-0.75 3-2.25 3s-2.25-1.5-2.25-3v-2" fill="#C4B5FD"/>
  <path d="M33.5 22c0-1.5 0.75-3 2.25-3s2.25 1.5 2.25 3v2c0 1.5-0.75 3-2.25 3s-2.25-1.5-2.25-3v-2" fill="#C4B5FD"/>
</svg>